<?xml version="1.0" encoding="UTF-8" standalone="no"?>
<!DOCTYPE svg PUBLIC "-//W3C//DTD SVG 1.1//EN"
 "http://www.w3.org/Graphics/SVG/1.1/DTD/svg11.dtd">
<!-- Generated by graphviz version 2.36.0 (20140111.2315)
 -->
<!-- Title: G Pages: 1 -->
<svg width="1070pt" height="260pt"
 viewBox="0.00 0.00 1070.00 260.00" xmlns="http://www.w3.org/2000/svg" xmlns:xlink="http://www.w3.org/1999/xlink">
<g id="graph0" class="graph" transform="scale(1 1) rotate(0) translate(4 256)">
<title>G</title>
<polygon fill="white" stroke="none" points="-4,4 -4,-256 1066,-256 1066,4 -4,4"/>
<!-- n04530566 -->
<g id="node1" class="node"><title>n04530566</title>
<polygon fill="lightgreen" stroke="lightgreen" points="606,-252 528,-252 528,-216 606,-216 606,-252"/>
<text text-anchor="start" x="536.5" y="-236.8" font-family="Times,serif" font-weight="bold" font-size="14.00">watercraft</text>
<text text-anchor="start" x="536" y="-224.4" font-family="Times,serif" font-size="12.00">(n04530566)</text>
</g>
<!-- n02858304 -->
<g id="node2" class="node"><title>n02858304</title>
<polygon fill="none" stroke="black" points="318,-180 240,-180 240,-144 318,-144 318,-180"/>
<text text-anchor="start" x="266" y="-164.8" font-family="Times,serif" font-weight="bold" font-size="14.00">boat</text>
<text text-anchor="start" x="248" y="-152.4" font-family="Times,serif" font-size="12.00">(n02858304)</text>
</g>
<!-- n04530566&#45;&gt;n02858304 -->
<g id="edge1" class="edge"><title>n04530566&#45;&gt;n02858304</title>
<path fill="none" stroke="black" d="M527.859,-223.487C475.918,-210.862 384.223,-188.575 327.817,-174.865"/>
<polygon fill="black" stroke="black" points="328.599,-171.453 318.055,-172.493 326.946,-178.255 328.599,-171.453"/>
</g>
<!-- n04128837 -->
<g id="node4" class="node"><title>n04128837</title>
<polygon fill="none" stroke="black" points="612.25,-180 521.75,-180 521.75,-144 612.25,-144 612.25,-180"/>
<text text-anchor="start" x="529.5" y="-164.8" font-family="Times,serif" font-weight="bold" font-size="14.00">sailing vessel</text>
<text text-anchor="start" x="536" y="-152.4" font-family="Times,serif" font-size="12.00">(n04128837)</text>
</g>
<!-- n04530566&#45;&gt;n04128837 -->
<g id="edge3" class="edge"><title>n04530566&#45;&gt;n04128837</title>
<path fill="none" stroke="black" d="M567,-215.697C567,-207.983 567,-198.712 567,-190.112"/>
<polygon fill="black" stroke="black" points="570.5,-190.104 567,-180.104 563.5,-190.104 570.5,-190.104"/>
</g>
<!-- n04194289 -->
<g id="node6" class="node"><title>n04194289</title>
<polygon fill="none" stroke="black" points="870,-180 792,-180 792,-144 870,-144 870,-180"/>
<text text-anchor="start" x="818.5" y="-164.8" font-family="Times,serif" font-weight="bold" font-size="14.00">ship</text>
<text text-anchor="start" x="800" y="-152.4" font-family="Times,serif" font-size="12.00">(n04194289)</text>
</g>
<!-- n04530566&#45;&gt;n04194289 -->
<g id="edge5" class="edge"><title>n04530566&#45;&gt;n04194289</title>
<path fill="none" stroke="black" d="M606.238,-222.596C653.1,-210.17 731.501,-189.382 782.22,-175.934"/>
<polygon fill="black" stroke="black" points="783.208,-179.293 791.977,-173.347 781.414,-172.527 783.208,-179.293"/>
</g>
<!-- n03447447 -->
<g id="node3" class="node"><title>n03447447</title>
<polygon fill="lightblue" stroke="lightblue" points="78,-108 0,-108 0,-72 78,-72 78,-108"/>
<text text-anchor="start" x="16" y="-92.8" font-family="Times,serif" font-weight="bold" font-size="14.00" fill="blue">gondola</text>
<text text-anchor="start" x="8" y="-80.4" font-family="Times,serif" font-size="12.00" fill="blue">(n03447447)</text>
</g>
<!-- n02858304&#45;&gt;n03447447 -->
<g id="edge2" class="edge"><title>n02858304&#45;&gt;n03447447</title>
<path fill="none" stroke="black" d="M239.783,-151.047C202.866,-141.484 145.857,-126.22 87.901,-108.182"/>
<polygon fill="black" stroke="black" points="88.8055,-104.798 78.2164,-105.145 86.7104,-111.477 88.8055,-104.798"/>
</g>
<!-- n03790230 -->
<g id="node13" class="node"><title>n03790230</title>
<polygon fill="none" stroke="black" points="174,-108 96,-108 96,-72 174,-72 174,-108"/>
<text text-anchor="start" x="104" y="-92.8" font-family="Times,serif" font-weight="bold" font-size="14.00">motorboat</text>
<text text-anchor="start" x="104" y="-80.4" font-family="Times,serif" font-size="12.00">(n03790230)</text>
</g>
<!-- n02858304&#45;&gt;n03790230 -->
<g id="edge12" class="edge"><title>n02858304&#45;&gt;n03790230</title>
<path fill="none" stroke="black" d="M243.774,-143.876C224.423,-134.469 200.227,-122.708 179.573,-112.667"/>
<polygon fill="black" stroke="black" points="180.886,-109.414 170.362,-108.19 177.825,-115.71 180.886,-109.414"/>
</g>
<!-- n03344393 -->
<g id="node15" class="node"><title>n03344393</title>
<polygon fill="lightblue" stroke="lightblue" points="270,-108 192,-108 192,-72 270,-72 270,-108"/>
<text text-anchor="start" x="208" y="-92.8" font-family="Times,serif" font-weight="bold" font-size="14.00" fill="blue">fireboat</text>
<text text-anchor="start" x="200" y="-80.4" font-family="Times,serif" font-size="12.00" fill="blue">(n03344393)</text>
</g>
<!-- n02858304&#45;&gt;n03344393 -->
<g id="edge14" class="edge"><title>n02858304&#45;&gt;n03344393</title>
<path fill="none" stroke="black" d="M267.135,-143.697C261.497,-135.474 254.646,-125.483 248.431,-116.421"/>
<polygon fill="black" stroke="black" points="251.271,-114.372 242.729,-108.104 245.497,-118.331 251.271,-114.372"/>
</g>
<!-- n04244997 -->
<g id="node18" class="node"><title>n04244997</title>
<polygon fill="none" stroke="black" points="366,-108 288,-108 288,-72 366,-72 366,-108"/>
<text text-anchor="start" x="296.5" y="-92.8" font-family="Times,serif" font-weight="bold" font-size="14.00">small boat</text>
<text text-anchor="start" x="296" y="-80.4" font-family="Times,serif" font-size="12.00">(n04244997)</text>
</g>
<!-- n02858304&#45;&gt;n04244997 -->
<g id="edge17" class="edge"><title>n02858304&#45;&gt;n04244997</title>
<path fill="none" stroke="black" d="M290.865,-143.697C296.503,-135.474 303.354,-125.483 309.569,-116.421"/>
<polygon fill="black" stroke="black" points="312.503,-118.331 315.271,-108.104 306.729,-114.372 312.503,-118.331"/>
</g>
<!-- n04158807 -->
<g id="node22" class="node"><title>n04158807</title>
<polygon fill="none" stroke="black" points="462,-108 384,-108 384,-72 462,-72 462,-108"/>
<text text-anchor="start" x="399" y="-92.8" font-family="Times,serif" font-weight="bold" font-size="14.00">sea boat</text>
<text text-anchor="start" x="392" y="-80.4" font-family="Times,serif" font-size="12.00">(n04158807)</text>
</g>
<!-- n02858304&#45;&gt;n04158807 -->
<g id="edge21" class="edge"><title>n02858304&#45;&gt;n04158807</title>
<path fill="none" stroke="black" d="M314.226,-143.876C333.577,-134.469 357.773,-122.708 378.427,-112.667"/>
<polygon fill="black" stroke="black" points="380.175,-115.71 387.638,-108.19 377.114,-109.414 380.175,-115.71"/>
</g>
<!-- n04147183 -->
<g id="node5" class="node"><title>n04147183</title>
<polygon fill="lightblue" stroke="lightblue" points="558,-108 480,-108 480,-72 558,-72 558,-108"/>
<text text-anchor="start" x="493" y="-92.8" font-family="Times,serif" font-weight="bold" font-size="14.00" fill="blue">schooner</text>
<text text-anchor="start" x="488" y="-80.4" font-family="Times,serif" font-size="12.00" fill="blue">(n04147183)</text>
</g>
<!-- n04128837&#45;&gt;n04147183 -->
<g id="edge4" class="edge"><title>n04128837&#45;&gt;n04147183</title>
<path fill="none" stroke="black" d="M555.135,-143.697C549.497,-135.474 542.646,-125.483 536.431,-116.421"/>
<polygon fill="black" stroke="black" points="539.271,-114.372 530.729,-108.104 533.497,-118.331 539.271,-114.372"/>
</g>
<!-- n04128499 -->
<g id="node11" class="node"><title>n04128499</title>
<polygon fill="none" stroke="black" points="654,-108 576,-108 576,-72 654,-72 654,-108"/>
<text text-anchor="start" x="592" y="-92.8" font-family="Times,serif" font-weight="bold" font-size="14.00">sailboat</text>
<text text-anchor="start" x="584" y="-80.4" font-family="Times,serif" font-size="12.00">(n04128499)</text>
</g>
<!-- n04128837&#45;&gt;n04128499 -->
<g id="edge10" class="edge"><title>n04128837&#45;&gt;n04128499</title>
<path fill="none" stroke="black" d="M578.865,-143.697C584.503,-135.474 591.354,-125.483 597.569,-116.421"/>
<polygon fill="black" stroke="black" points="600.503,-118.331 603.271,-108.104 594.729,-114.372 600.503,-118.331"/>
</g>
<!-- n03896103 -->
<g id="node7" class="node"><title>n03896103</title>
<polygon fill="none" stroke="black" points="773.25,-108 672.75,-108 672.75,-72 773.25,-72 773.25,-108"/>
<text text-anchor="start" x="680.5" y="-92.8" font-family="Times,serif" font-weight="bold" font-size="14.00">passenger ship</text>
<text text-anchor="start" x="692" y="-80.4" font-family="Times,serif" font-size="12.00">(n03896103)</text>
</g>
<!-- n04194289&#45;&gt;n03896103 -->
<g id="edge6" class="edge"><title>n04194289&#45;&gt;n03896103</title>
<path fill="none" stroke="black" d="M804.58,-143.876C790.59,-134.808 773.224,-123.552 758.114,-113.759"/>
<polygon fill="black" stroke="black" points="759.817,-110.692 749.521,-108.19 756.009,-116.566 759.817,-110.692"/>
</g>
<!-- n02965300 -->
<g id="node9" class="node"><title>n02965300</title>
<polygon fill="none" stroke="black" points="870,-108 792,-108 792,-72 870,-72 870,-108"/>
<text text-anchor="start" x="800.5" y="-92.8" font-family="Times,serif" font-weight="bold" font-size="14.00">cargo ship</text>
<text text-anchor="start" x="800" y="-80.4" font-family="Times,serif" font-size="12.00">(n02965300)</text>
</g>
<!-- n04194289&#45;&gt;n02965300 -->
<g id="edge8" class="edge"><title>n04194289&#45;&gt;n02965300</title>
<path fill="none" stroke="black" d="M831,-143.697C831,-135.983 831,-126.712 831,-118.112"/>
<polygon fill="black" stroke="black" points="834.5,-118.104 831,-108.104 827.5,-118.104 834.5,-118.104"/>
</g>
<!-- n03947888 -->
<g id="node16" class="node"><title>n03947888</title>
<polygon fill="lightblue" stroke="lightblue" points="966,-108 888,-108 888,-72 966,-72 966,-108"/>
<text text-anchor="start" x="909.5" y="-92.8" font-family="Times,serif" font-weight="bold" font-size="14.00" fill="blue">pirate</text>
<text text-anchor="start" x="896" y="-80.4" font-family="Times,serif" font-size="12.00" fill="blue">(n03947888)</text>
</g>
<!-- n04194289&#45;&gt;n03947888 -->
<g id="edge15" class="edge"><title>n04194289&#45;&gt;n03947888</title>
<path fill="none" stroke="black" d="M854.73,-143.697C866.937,-134.796 881.985,-123.823 895.184,-114.199"/>
<polygon fill="black" stroke="black" points="897.525,-116.824 903.543,-108.104 893.4,-111.168 897.525,-116.824"/>
</g>
<!-- n04606251 -->
<g id="node17" class="node"><title>n04606251</title>
<polygon fill="lightblue" stroke="lightblue" points="1062,-108 984,-108 984,-72 1062,-72 1062,-108"/>
<text text-anchor="start" x="1005" y="-92.8" font-family="Times,serif" font-weight="bold" font-size="14.00" fill="blue">wreck</text>
<text text-anchor="start" x="992" y="-80.4" font-family="Times,serif" font-size="12.00" fill="blue">(n04606251)</text>
</g>
<!-- n04194289&#45;&gt;n04606251 -->
<g id="edge16" class="edge"><title>n04194289&#45;&gt;n04606251</title>
<path fill="none" stroke="black" d="M870.317,-146.666C900.344,-135.718 941.897,-120.569 974.073,-108.838"/>
<polygon fill="black" stroke="black" points="975.539,-112.029 983.735,-105.315 973.141,-105.452 975.539,-112.029"/>
</g>
<!-- n03673027 -->
<g id="node8" class="node"><title>n03673027</title>
<polygon fill="lightblue" stroke="lightblue" points="762,-36 684,-36 684,-0 762,-0 762,-36"/>
<text text-anchor="start" x="709" y="-20.8" font-family="Times,serif" font-weight="bold" font-size="14.00" fill="blue">liner</text>
<text text-anchor="start" x="692" y="-8.4" font-family="Times,serif" font-size="12.00" fill="blue">(n03673027)</text>
</g>
<!-- n03896103&#45;&gt;n03673027 -->
<g id="edge7" class="edge"><title>n03896103&#45;&gt;n03673027</title>
<path fill="none" stroke="black" d="M723,-71.6966C723,-63.9827 723,-54.7125 723,-46.1124"/>
<polygon fill="black" stroke="black" points="726.5,-46.1043 723,-36.1043 719.5,-46.1044 726.5,-46.1043"/>
</g>
<!-- n03095699 -->
<g id="node10" class="node"><title>n03095699</title>
<polygon fill="lightblue" stroke="lightblue" points="880.25,-36 781.75,-36 781.75,-0 880.25,-0 880.25,-36"/>
<text text-anchor="start" x="789.5" y="-20.8" font-family="Times,serif" font-weight="bold" font-size="14.00" fill="blue">container ship</text>
<text text-anchor="start" x="800" y="-8.4" font-family="Times,serif" font-size="12.00" fill="blue">(n03095699)</text>
</g>
<!-- n02965300&#45;&gt;n03095699 -->
<g id="edge9" class="edge"><title>n02965300&#45;&gt;n03095699</title>
<path fill="none" stroke="black" d="M831,-71.6966C831,-63.9827 831,-54.7125 831,-46.1124"/>
<polygon fill="black" stroke="black" points="834.5,-46.1043 831,-36.1043 827.5,-46.1044 834.5,-46.1043"/>
</g>
<!-- n04483307 -->
<g id="node12" class="node"><title>n04483307</title>
<polygon fill="lightblue" stroke="lightblue" points="563,-36 485,-36 485,-0 563,-0 563,-36"/>
<text text-anchor="start" x="497" y="-20.8" font-family="Times,serif" font-weight="bold" font-size="14.00" fill="blue">trimaran</text>
<text text-anchor="start" x="493" y="-8.4" font-family="Times,serif" font-size="12.00" fill="blue">(n04483307)</text>
</g>
<!-- n04128499&#45;&gt;n04483307 -->
<g id="edge11" class="edge"><title>n04128499&#45;&gt;n04483307</title>
<path fill="none" stroke="black" d="M592.506,-71.6966C581.045,-62.8807 566.942,-52.0321 554.516,-42.4742"/>
<polygon fill="black" stroke="black" points="556.296,-39.4273 546.236,-36.1043 552.028,-44.9757 556.296,-39.4273"/>
</g>
<!-- n02981792 -->
<g id="node20" class="node"><title>n02981792</title>
<polygon fill="lightblue" stroke="lightblue" points="661,-36 581,-36 581,-0 661,-0 661,-36"/>
<text text-anchor="start" x="589" y="-20.8" font-family="Times,serif" font-weight="bold" font-size="14.00" fill="blue">catamaran</text>
<text text-anchor="start" x="590" y="-8.4" font-family="Times,serif" font-size="12.00" fill="blue">(n02981792)</text>
</g>
<!-- n04128499&#45;&gt;n02981792 -->
<g id="edge19" class="edge"><title>n04128499&#45;&gt;n02981792</title>
<path fill="none" stroke="black" d="M616.483,-71.6966C617.144,-63.9827 617.939,-54.7125 618.676,-46.1124"/>
<polygon fill="black" stroke="black" points="622.167,-46.3667 619.534,-36.1043 615.193,-45.7689 622.167,-46.3667"/>
</g>
<!-- n04273569 -->
<g id="node14" class="node"><title>n04273569</title>
<polygon fill="lightblue" stroke="lightblue" points="174,-36 96,-36 96,-0 174,-0 174,-36"/>
<text text-anchor="start" x="106" y="-20.8" font-family="Times,serif" font-weight="bold" font-size="14.00" fill="blue">speedboat</text>
<text text-anchor="start" x="104" y="-8.4" font-family="Times,serif" font-size="12.00" fill="blue">(n04273569)</text>
</g>
<!-- n03790230&#45;&gt;n04273569 -->
<g id="edge13" class="edge"><title>n03790230&#45;&gt;n04273569</title>
<path fill="none" stroke="black" d="M135,-71.6966C135,-63.9827 135,-54.7125 135,-46.1124"/>
<polygon fill="black" stroke="black" points="138.5,-46.1043 135,-36.1043 131.5,-46.1044 138.5,-46.1043"/>
</g>
<!-- n02951358 -->
<g id="node19" class="node"><title>n02951358</title>
<polygon fill="lightblue" stroke="lightblue" points="270,-36 192,-36 192,-0 270,-0 270,-36"/>
<text text-anchor="start" x="214" y="-20.8" font-family="Times,serif" font-weight="bold" font-size="14.00" fill="blue">canoe</text>
<text text-anchor="start" x="200" y="-8.4" font-family="Times,serif" font-size="12.00" fill="blue">(n02951358)</text>
</g>
<!-- n04244997&#45;&gt;n02951358 -->
<g id="edge18" class="edge"><title>n04244997&#45;&gt;n02951358</title>
<path fill="none" stroke="black" d="M303.27,-71.6966C291.063,-62.796 276.015,-51.8232 262.816,-42.1989"/>
<polygon fill="black" stroke="black" points="264.6,-39.1681 254.457,-36.1043 260.475,-44.8241 264.6,-39.1681"/>
</g>
<!-- n04612504 -->
<g id="node21" class="node"><title>n04612504</title>
<polygon fill="lightblue" stroke="lightblue" points="366,-36 288,-36 288,-0 366,-0 366,-36"/>
<text text-anchor="start" x="313" y="-20.8" font-family="Times,serif" font-weight="bold" font-size="14.00" fill="blue">yawl</text>
<text text-anchor="start" x="296" y="-8.4" font-family="Times,serif" font-size="12.00" fill="blue">(n04612504)</text>
</g>
<!-- n04244997&#45;&gt;n04612504 -->
<g id="edge20" class="edge"><title>n04244997&#45;&gt;n04612504</title>
<path fill="none" stroke="black" d="M327,-71.6966C327,-63.9827 327,-54.7125 327,-46.1124"/>
<polygon fill="black" stroke="black" points="330.5,-46.1043 327,-36.1043 323.5,-46.1044 330.5,-46.1043"/>
</g>
<!-- n03662601 -->
<g id="node23" class="node"><title>n03662601</title>
<polygon fill="lightblue" stroke="lightblue" points="462,-36 384,-36 384,-0 462,-0 462,-36"/>
<text text-anchor="start" x="401" y="-20.8" font-family="Times,serif" font-weight="bold" font-size="14.00" fill="blue">lifeboat</text>
<text text-anchor="start" x="392" y="-8.4" font-family="Times,serif" font-size="12.00" fill="blue">(n03662601)</text>
</g>
<!-- n04158807&#45;&gt;n03662601 -->
<g id="edge22" class="edge"><title>n04158807&#45;&gt;n03662601</title>
<path fill="none" stroke="black" d="M423,-71.6966C423,-63.9827 423,-54.7125 423,-46.1124"/>
<polygon fill="black" stroke="black" points="426.5,-46.1043 423,-36.1043 419.5,-46.1044 426.5,-46.1043"/>
</g>
</g>
</svg>
